# xmcd
#
# Track frame offsets:
# 150
# 23960
# 41018
# 66367
# 88179
# 117687
# 140466
# 161850
# 186616
# 213154
# 235324
# 261279
# 274949
# 298796
#
# Disc length: 4309 seconds
#
#
# Revision: 0
# Processed by: cddbd v1.5.1PL2 Copyright (c) Steve Scherf et al.
# Submitted via: FreeRIP 2.90 
#
DISCID=e810d30e
DTITLE=Vários - 12 Revelações Vol. 2
DYEAR=1900
DGENRE=Rap
TTITLE0=Apresentação - Nuno Mendes
TTITLE1=A Nuvem - Conexão Suburbana
TTITLE2=Somente os Covardes Merecem Perder - 9MM
TTITLE3=Ei Jão - Enxame
TTITLE4=Triste Utopia - Dinastia
TTITLE5=Pedra Preciosa - Blokaus
TTITLE6=Devo a Ti - Reflexão
TTITLE7=Choque Estério - Fúria do Raciocínio
TTITLE8=Tempo Triste - Corporação
TTITLE9=Choro ou Risos - Livre Ameaça
TTITLE10=Malandro Fique de Boa - Alerta Ao Sistema
TTITLE11=L R - L R
TTITLE12=2N Fatos - Ativamente e a Banca 2N
TTITLE13=Paz Prus Manos - Sexto Sello
EXTD=
EXTT0=
EXTT1=
EXTT2=
EXTT3=
EXTT4=
EXTT5=
EXTT6=
EXTT7=
EXTT8=
EXTT9=
EXTT10=
EXTT11=
EXTT12=
EXTT13=
PLAYORDER=
